<svg width="16" height="14" viewBox="0 0 16 14" fill="none" xmlns="http://www.w3.org/2000/svg">
<path d="M9.07804 13.6158C8.95621 13.5654 8.85208 13.48 8.77881 13.3704C8.70553 13.2608 8.66641 13.1319 8.66638 13L8.66638 7.66687L0.666645 7.66687C0.48984 7.66687 0.320276 7.59663 0.195256 7.47161C0.0702359 7.34659 6.54523e-07 7.17703 6.62252e-07 7.00022C6.6998e-07 6.82342 0.0702359 6.65386 0.195256 6.52884C0.320276 6.40382 0.48984 6.33358 0.666645 6.33358L8.66638 6.33358L8.66638 1.00042C8.66628 0.868495 8.70532 0.739504 8.77857 0.629779C8.85181 0.520053 8.95596 0.434527 9.07784 0.384027C9.19972 0.333527 9.33384 0.320324 9.46323 0.34609C9.59261 0.371856 9.71144 0.435432 9.80468 0.52877L15.8045 6.52857C15.8665 6.59049 15.9156 6.66401 15.9492 6.74494C15.9827 6.82587 16 6.91262 16 7.00023C16 7.08783 15.9827 7.17458 15.9492 7.25551C15.9156 7.33644 15.8665 7.40996 15.8045 7.47188L9.80468 13.4717C9.7114 13.5649 9.59257 13.6283 9.46322 13.654C9.33388 13.6796 9.19983 13.6664 9.07804 13.6158Z" fill="#373334"/>
</svg>
