<svg width="16" height="14" viewBox="0 0 16 14" fill="none" xmlns="http://www.w3.org/2000/svg">
<path d="M6.92196 13.6158C7.04379 13.5654 7.14792 13.48 7.22119 13.3704C7.29447 13.2608 7.33359 13.1319 7.33362 13L7.33362 7.66687L15.3334 7.66687C15.5102 7.66687 15.6797 7.59663 15.8047 7.47161C15.9298 7.34659 16 7.17703 16 7.00022C16 6.82342 15.9298 6.65386 15.8047 6.52884C15.6797 6.40382 15.5102 6.33358 15.3334 6.33358L7.33362 6.33358L7.33362 1.00042C7.33372 0.868495 7.29468 0.739504 7.22143 0.629779C7.14819 0.520053 7.04404 0.434527 6.92216 0.384027C6.80028 0.333527 6.66616 0.320324 6.53677 0.34609C6.40739 0.371856 6.28856 0.435432 6.19532 0.52877L0.195518 6.52857C0.133536 6.59049 0.084365 6.66401 0.0508166 6.74494C0.0172682 6.82587 2.87593e-07 6.91262 2.91423e-07 7.00023C2.95252e-07 7.08783 0.0172682 7.17458 0.0508166 7.25551C0.084365 7.33644 0.133536 7.40996 0.195518 7.47188L6.19532 13.4717C6.2886 13.5649 6.40743 13.6283 6.53678 13.654C6.66612 13.6796 6.80017 13.6664 6.92196 13.6158Z" fill="#373334"/>
</svg>
