<svg width="16" height="16" viewBox="0 0 16 16" fill="none" xmlns="http://www.w3.org/2000/svg">
<path fill-rule="evenodd" clip-rule="evenodd" d="M7.29279 0.292908C7.48031 0.105437 7.73462 0.00012207 7.99979 0.00012207C8.26495 0.00012207 8.51926 0.105437 8.70679 0.292908L15.7068 7.29291C15.8466 7.43276 15.9418 7.61092 15.9804 7.80488C16.0189 7.99883 15.9991 8.19986 15.9235 8.38256C15.8478 8.56526 15.7197 8.72143 15.5552 8.83131C15.3908 8.94119 15.1975 8.99987 14.9998 8.99991H13.9998V14.9999C13.9998 15.2651 13.8944 15.5195 13.7069 15.707C13.5194 15.8946 13.265 15.9999 12.9998 15.9999H10.9998C10.7346 15.9999 10.4802 15.8946 10.2927 15.707C10.1051 15.5195 9.99979 15.2651 9.99979 14.9999V11.9999C9.99979 11.7347 9.89443 11.4803 9.70689 11.2928C9.51936 11.1053 9.265 10.9999 8.99979 10.9999H6.99979C6.73457 10.9999 6.48022 11.1053 6.29268 11.2928C6.10514 11.4803 5.99979 11.7347 5.99979 11.9999V14.9999C5.99979 15.2651 5.89443 15.5195 5.70689 15.707C5.51936 15.8946 5.265 15.9999 4.99979 15.9999H2.99979C2.73457 15.9999 2.48022 15.8946 2.29268 15.707C2.10514 15.5195 1.99979 15.2651 1.99979 14.9999V8.99991H0.999787C0.802037 8.99987 0.608738 8.94119 0.444328 8.83131C0.279918 8.72143 0.151779 8.56526 0.076109 8.38256C0.000438951 8.19986 -0.0193641 7.99883 0.0192035 7.80488C0.057771 7.61092 0.152977 7.43276 0.292787 7.29291L7.29279 0.292908Z" fill="#1F1F1F"/>
</svg>
