<svg width="232" height="221" viewBox="0 0 232 221" fill="none" xmlns="http://www.w3.org/2000/svg">
<path d="M151.745 0.998596C142.954 28.0199 89.0461 28.0199 80.2547 0.998596C89.0461 28.0199 45.413 59.7066 22.4098 43.0138C45.386 59.7066 28.7201 110.999 0.323486 110.999C28.7471 110.999 45.386 162.291 22.4098 178.983C45.386 162.291 89.0191 193.977 80.2547 220.999C89.0461 193.977 142.954 193.977 151.745 220.999C142.954 193.977 186.587 162.291 209.59 178.983C186.614 162.291 203.28 110.999 231.677 110.999C203.253 110.999 186.614 59.7066 209.59 43.0138C186.587 59.7066 142.954 27.993 151.745 0.998596Z" fill="#EFB673"/>
<path d="M46.4454 111.25C46.4454 111.25 77.6693 150.088 116.186 150.088C154.703 150.088 185.927 111.25 185.927 111.25C185.927 111.25 154.703 72.4126 116.186 72.4126C77.6693 72.4126 46.4454 111.25 46.4454 111.25Z" fill="#FFFCF2"/>
<ellipse cx="116.19" cy="111.671" rx="32.5735" ry="32.1559" transform="rotate(90 116.19 111.671)" fill="#DA0B05"/>
<ellipse cx="116.179" cy="111.667" rx="18.3748" ry="17.9572" transform="rotate(90 116.179 111.667)" fill="black"/>
</svg>
