<svg width="304" height="221" viewBox="0 0 304 221" fill="none" xmlns="http://www.w3.org/2000/svg">
<path d="M228.627 170.633L115.456 200.957C74.3169 211.98 31.6412 187.341 20.618 146.202C9.59486 105.063 34.2337 62.3875 75.3727 51.3644L188.544 21.0402C229.683 10.017 272.359 34.6559 283.382 75.7949C294.405 116.934 269.761 159.611 228.627 170.633Z" stroke="black" stroke-miterlimit="10"/>
<path d="M31.3074 143.427C21.0402 105.109 43.9865 65.3649 82.3043 55.0977C82.7563 54.9766 186.099 27.4808 186.479 27.691C224.269 17.888 263.371 40.6612 273.517 78.5269C283.663 116.393 261.187 155.666 223.558 166.071C223.334 166.443 120.089 194.303 119.637 194.424C81.3202 204.696 41.576 181.75 31.3074 143.427Z" stroke="black" stroke-miterlimit="10"/>
<path d="M41.9978 140.658C32.4852 105.156 53.7389 68.3434 89.2407 58.8308C90.1447 58.5885 183.658 33.9159 184.413 34.3429C218.857 25.7653 254.389 46.6661 263.659 81.2638C272.93 115.862 252.608 151.728 218.49 161.522C218.045 162.27 124.729 187.658 123.825 187.901C88.3231 197.413 51.5105 176.16 41.9978 140.658Z" stroke="black" stroke-miterlimit="10"/>
<path d="M52.6868 137.883C43.9287 105.197 63.4899 71.3158 96.1756 62.5577C97.5317 62.1943 181.217 40.35 182.351 40.9872C213.446 33.6298 245.41 52.6635 253.805 83.9932C262.198 115.318 244.04 147.787 213.427 156.964C212.758 158.084 129.368 181.008 128.012 181.371C95.326 190.129 61.4449 170.568 52.6868 137.883Z" stroke="black" stroke-miterlimit="10"/>
<path d="M63.381 135.111C55.3788 105.247 73.2475 74.2975 103.112 66.2954C104.92 65.8109 178.777 46.795 180.291 47.6424C208.044 41.5089 236.428 58.6784 243.946 86.7348C251.464 114.791 235.462 143.854 208.365 152.417C207.478 153.908 134.008 174.368 132.2 174.853C102.327 182.846 71.3832 164.976 63.381 135.111Z" stroke="black" stroke-miterlimit="10"/>
<path d="M74.0716 132.336C66.824 105.288 83.0001 77.2698 110.049 70.0222C112.309 69.4166 176.331 53.2252 178.23 54.2867C202.636 49.3734 227.451 64.6757 234.092 89.4589C240.734 114.247 226.893 139.902 203.3 147.85C202.19 149.712 138.651 167.706 136.386 168.313C109.332 175.562 81.3192 159.385 74.0716 132.336Z" stroke="black" stroke-miterlimit="10"/>
<path d="M84.7608 129.566C78.2677 105.334 92.7527 80.2526 116.98 73.7609C119.697 73.0328 173.886 59.6712 176.164 60.9376C197.22 57.2445 218.467 70.6797 224.232 92.1949C229.997 113.71 218.32 135.967 198.232 143.299C196.9 145.538 143.283 161.057 140.566 161.785C116.339 168.277 91.2539 153.799 84.7608 129.566Z" stroke="black" stroke-miterlimit="10"/>
<path d="M95.4496 126.792C89.7125 105.381 102.504 83.2258 123.915 77.4887C127.084 76.6395 171.445 66.1062 174.096 67.5842C191.806 65.1165 209.478 76.6808 214.367 94.9279C219.257 113.175 209.734 132.026 193.163 138.744C191.608 141.355 147.917 154.409 144.753 155.257C123.341 160.994 101.188 148.208 95.4496 126.792Z" stroke="black" stroke-miterlimit="10"/>
<path d="M106.14 124.022C101.158 105.427 112.256 86.2038 130.851 81.2213C134.473 80.2509 169.004 72.5408 172.036 74.2343C186.403 72.9853 200.501 82.6839 204.513 97.6577C208.525 112.632 201.165 128.08 188.099 134.181C186.32 137.164 152.56 147.753 148.938 148.723C130.345 153.711 111.123 142.617 106.14 124.022Z" stroke="black" stroke-miterlimit="10"/>
<path d="M116.83 121.246C112.602 105.467 122.009 89.1808 137.783 84.9542C141.856 83.8628 166.559 78.981 169.971 80.8847C180.989 80.8559 191.518 88.6874 194.655 100.393C197.791 112.099 192.588 124.146 183.032 129.63C181.03 132.984 157.195 141.108 153.122 142.2C137.349 146.431 121.058 137.026 116.83 121.246Z" stroke="black" stroke-miterlimit="10"/>
<path d="M127.52 118.477C124.048 105.519 131.756 92.1607 144.719 88.6873C149.245 87.4747 164.118 85.4161 167.91 87.5352C175.582 88.7318 182.536 94.6924 184.797 103.13C187.056 111.563 184.015 120.207 177.97 125.079C175.746 128.81 161.836 134.464 157.31 135.677C144.352 139.149 130.992 131.435 127.52 118.477Z" stroke="black" stroke-miterlimit="10"/>
<path d="M161.497 129.142C171.638 126.424 177.656 116.001 174.938 105.86C172.221 95.7196 161.798 89.7016 151.657 92.4188C141.516 95.136 135.499 105.559 138.216 115.7C140.933 125.841 151.356 131.859 161.497 129.142Z" stroke="black" stroke-miterlimit="10"/>
<path d="M153.764 124.979C162.265 124.979 169.157 118.087 169.157 109.585C169.157 101.084 162.265 94.1918 153.764 94.1918C145.262 94.1918 138.37 101.084 138.37 109.585C138.37 118.087 145.262 124.979 153.764 124.979Z" fill="#DA0B05"/>
</svg>
