<svg width="430" height="285" viewBox="0 0 430 285" fill="none" xmlns="http://www.w3.org/2000/svg">
<path d="M0 285L-5.42021e-06 161C-8.70341e-06 85.8893 60.8893 25 136 25C211.111 25 272 85.8893 272 161L272 285L0 285Z" fill="#CEB7A1"/>
<path d="M430 1.14441e-05L430 109C430 175.274 376.274 229 310 229C243.726 229 190 175.274 190 109L190 9.53359e-07L430 1.14441e-05Z" fill="#CAD6D2" fill-opacity="0.8"/>
<circle cx="135.942" cy="155.102" r="86.1074" fill="#373334"/>
<ellipse cx="310" cy="151.5" rx="45" ry="44.5" fill="#D74339"/>
<path d="M147.921 134.38C185.372 69.5059 86.517 69.5059 123.968 134.38C86.517 69.5059 37.0735 155.117 111.991 155.117C37.0735 155.117 86.5011 240.728 123.968 175.855C86.517 240.728 185.372 240.728 147.921 175.855C185.372 240.728 234.816 155.117 159.898 155.117C234.816 155.117 185.388 69.4901 147.921 134.38Z" fill="#F2ECE7"/>
</svg>
