<svg width="98" height="36" viewBox="0 0 98 36" fill="none" xmlns="http://www.w3.org/2000/svg">
<path fill-rule="evenodd" clip-rule="evenodd" d="M10.6897 3.1456L10.7021 0.452826L8.06526 0.440125L8.05282 3.1329L10.6897 3.1456ZM15.9205 11.298L15.9081 13.9908H15.8956L18.5325 14.0035L18.4952 19.4018L15.8583 19.3891L15.8459 22.0945L2.6244 22.0183L2.63684 19.3129L0 19.3001L0.0373137 13.8892L2.67415 13.9019L2.68659 11.2091L5.3483 11.2218L5.37318 8.52906L8.01001 8.54176L8.02245 5.84899L10.6593 5.86169L10.6717 3.16892L13.3086 3.18162L13.2588 11.2853L10.622 11.2726L10.6095 13.9654L7.9727 13.9527L7.96026 16.6455L10.6095 16.6582L10.622 13.9654L13.2588 13.9781L13.2712 11.2853L15.9205 11.298Z" fill="url(#paint0_radial_25_16517)"/>
<path d="M2.64647 22.0197L2.63403 24.7125L5.27087 24.7252L5.25843 27.4307L7.90771 27.4434L7.85795 35.5471L10.5072 35.5598L10.5445 27.4561L13.1938 27.4688L13.2063 24.776L15.8555 24.7887L15.868 22.0832L2.64647 22.0197Z" fill="url(#paint1_linear_25_16517)"/>
<path d="M2.63814 22.036L2.64019 21.655L15.8741 21.7293L15.8721 22.1104L2.63814 22.036Z" fill="#EC2227"/>
<path fill-rule="evenodd" clip-rule="evenodd" d="M42.0973 27.7123C40.7099 27.6992 39.8396 27.3185 38.4901 26.3076C37.1531 27.174 35.6017 27.6204 34.0377 27.5942C29.1944 27.5679 25.3853 23.7082 25.4105 18.9032C25.4484 14.1245 29.1944 10.2779 33.7855 10.3173H34.0125C38.5531 10.186 42.3244 13.9013 42.4505 18.6275V19.1001C42.5262 21.0825 41.8198 23.0124 40.4955 24.4434C40.9369 24.7453 41.4415 24.9291 41.9712 24.9422C42.2235 24.9422 42.4631 24.916 42.7027 24.8766L42.6901 27.6729C42.4883 27.7123 42.1856 27.7123 42.0973 27.7123ZM33.9382 13.3257C30.9742 13.2207 28.4768 15.6363 28.3759 18.7346V18.9709C28.3759 19.2335 28.3885 19.496 28.4137 19.7586C29.221 19.5486 30.0534 19.4567 30.8859 19.4698C33.6102 19.5617 36.1959 20.7301 38.113 22.7387C39.0212 21.7804 39.5004 20.4807 39.4626 19.1416C39.5761 16.0433 37.2427 13.4308 34.2535 13.3126C34.1526 13.3126 34.0391 13.3126 33.9382 13.3257ZM29.3063 22.1761C29.8108 22.0579 30.3279 22.0054 30.8451 22.0054C32.6109 22.0186 34.1496 22.675 35.9659 24.2241C35.3605 24.5261 34.7046 24.6705 34.0361 24.6442C32.1694 24.7099 30.3784 23.7778 29.3063 22.1761Z" fill="#474747"/>
<path d="M44.3796 27.3909L44.4679 10.6917L57.333 10.7574L57.3204 13.7244L47.4446 13.6719L47.4193 17.6104L57.0808 17.6629L57.0682 20.6299L47.4067 20.5774L47.3815 24.4633L57.2826 24.5158L57.27 27.4828L44.3796 27.3909Z" fill="#474747"/>
<path fill-rule="evenodd" clip-rule="evenodd" d="M64.1186 27.4918C66.5529 27.5049 67.9908 27.2818 69.3151 26.5991C71.7998 25.3388 73.2629 22.595 73.2629 19.2341C73.2755 16.0702 72.0395 13.4183 69.807 12.0267C68.5583 11.239 66.6538 10.8189 64.1312 10.8057L59.0483 10.7795L58.96 27.4656L64.1186 27.4918ZM64.0299 13.7468C65.9218 13.7599 66.9309 13.9569 67.8642 14.4557C68.4444 14.8496 68.9363 15.3616 69.3399 15.9655C71.0553 18.5255 70.4372 22.0439 67.9777 23.8162C66.7543 24.3939 65.4047 24.6433 64.0677 24.5383L61.9866 24.5251L62.0371 13.7337L64.0299 13.7468Z" fill="#474747"/>
<path fill-rule="evenodd" clip-rule="evenodd" d="M84.2503 27.6093L84.2629 25.1018V25.1149L85.953 25.128L85.9656 22.4367L84.2755 22.4236L84.3386 10.9232L81.8791 10.9101L74.4501 22.6074L74.4375 25.0493L81.3746 25.0887L81.362 27.5962L84.2503 27.6093ZM77.4142 22.362L81.4251 15.9554L81.3873 22.3883L77.4142 22.362Z" fill="#474747"/>
<path d="M94.7685 21.751L91.4765 24.823L97.7956 24.8624L97.783 27.685L87.4152 27.6325L87.4278 24.9937L93.154 19.401C94.491 18.1145 95.0081 17.1561 95.0207 16.0664C95.109 14.7011 94.1252 13.5327 92.8135 13.4408C92.7757 13.4408 92.7504 13.4408 92.7126 13.4408C91.2117 13.4276 90.2153 14.7405 90.2026 16.736L87.3647 16.7229C87.39 12.8763 89.6351 10.6707 92.7 10.697C95.5253 10.6576 97.8586 12.9944 97.8965 15.9483C97.8965 16.0139 97.8965 16.0927 97.8965 16.1583C97.8965 18.167 97.2154 19.4798 94.7685 21.751Z" fill="#474747"/>
<defs>
<radialGradient id="paint0_radial_25_16517" cx="0" cy="0" r="1" gradientUnits="userSpaceOnUse" gradientTransform="translate(12.8138 13.084) rotate(0.32195) scale(17.8567 20.8646)">
<stop stop-color="#EC2227"/>
<stop offset="1" stop-color="#8C1742"/>
</radialGradient>
<linearGradient id="paint1_linear_25_16517" x1="2.5699" y1="35.5297" x2="15.7946" y2="35.6007" gradientUnits="userSpaceOnUse">
<stop stop-color="#6E6F72"/>
<stop offset="0.09" stop-color="#747477"/>
<stop offset="0.2" stop-color="#818385"/>
<stop offset="0.31" stop-color="#9A9B9D"/>
<stop offset="0.44" stop-color="#BCBEBF"/>
<stop offset="0.51" stop-color="#D2D3D4"/>
<stop offset="0.54" stop-color="#C0C2C4"/>
<stop offset="0.62" stop-color="#A1A3A5"/>
<stop offset="0.7" stop-color="#8C8C8F"/>
<stop offset="0.79" stop-color="#7B7C7E"/>
<stop offset="0.88" stop-color="#717275"/>
<stop offset="1" stop-color="#6E6F72"/>
</linearGradient>
</defs>
</svg>
