<svg width="95" height="16" viewBox="0 0 95 16" fill="none" xmlns="http://www.w3.org/2000/svg">
<g clip-path="url(#clip0_149_4090)">
<path d="M2.71741 15.7511H0L6.7608 0.231934H9.4618L2.71741 15.7511ZM9.54367 15.7511H6.82627L13.5871 0.231934H16.2881L9.54367 15.7511Z" fill="#FF4700"/>
<path d="M25.6351 6.86427L23.6053 6.41658C21.379 5.90259 20.4623 5.4715 20.4623 4.19482C20.4623 2.93471 21.8537 2.13886 23.5889 2.13886C25.275 2.13886 26.5355 2.78549 26.9775 4.32746H29.6785C29.2365 1.77409 27.0757 0 23.6053 0C20.3968 0 17.8922 1.87357 17.8922 4.44353C17.8922 6.83107 19.611 8.0912 22.0829 8.65493L24.1291 9.1026C26.3881 9.6166 27.485 9.99793 27.485 11.4736C27.485 12.8829 26.1426 13.8611 23.7035 13.8611C21.8373 13.8611 20.3804 12.9161 20.1185 11.0259H17.4175C17.8595 14.1264 20.2822 16 23.638 16C27.5013 16 30.055 14.1099 30.055 11.1917C30.055 8.7544 28.6145 7.54407 25.6351 6.86427Z" fill="white"/>
<path d="M79.656 13.4796V8.90343H87.17V6.64851H79.656V2.50344H87.3007V0.231934H77.0533V15.7511H87.4807V13.4796H79.656Z" fill="white"/>
<path d="M38.4696 0.231934H32.6255V15.7346H35.2283V10.147H38.4696C42.2674 10.147 44.4937 8.32316 44.4937 5.18945C44.4937 2.05577 42.2674 0.231934 38.4696 0.231934ZM38.535 7.90863H35.2283V2.50344H38.535C40.6468 2.50344 41.7926 3.39877 41.7926 5.18945C41.7926 6.99669 40.6468 7.90863 38.535 7.90863Z" fill="white"/>
<path d="M49.4047 0.231934L44.1008 15.7511H46.851L48.3079 11.291L49.0609 9.05269L51.8929 0.56354L54.7249 9.05269L55.4616 11.291L56.9348 15.7511H59.6686L54.3811 0.231934H49.4047Z" fill="white"/>
<path d="M67.608 13.8445C64.9233 13.8445 62.9917 11.4901 62.9917 7.99173C62.9917 4.50985 64.8251 2.13886 67.6247 2.13886C69.9327 2.13886 71.2747 3.54819 71.9133 5.40518H74.6473C73.8447 2.12228 71.2093 0 67.6407 0C63.45 0 60.3397 3.15026 60.3397 7.99173C60.3397 12.8331 63.4991 15.9834 67.6247 15.9834C71.1273 15.9834 73.7467 14.2093 74.7453 10.5617H72.044C71.34 12.6508 69.8673 13.8445 67.608 13.8445Z" fill="white"/>
<path d="M91.9166 0.232422C93.4386 0.232422 94.6666 1.49252 94.6666 3.0345C94.6666 4.57646 93.4386 5.83657 91.9166 5.83657C90.394 5.83657 89.1666 4.57646 89.1666 3.0345C89.1666 1.49252 90.394 0.232422 91.9166 0.232422ZM91.9166 5.306C93.1606 5.306 94.1426 4.2946 94.1426 3.0345C94.1426 1.77439 93.144 0.762991 91.9166 0.762991C90.6726 0.762991 89.674 1.77439 89.674 3.0345C89.69 4.2946 90.6726 5.306 91.9166 5.306ZM93.21 2.42102C93.21 2.86869 92.964 3.18372 92.522 3.31636L93.2753 4.6262H92.6533L91.982 3.38268H91.376V4.6262H90.82V1.45936H92.0313C92.768 1.45936 93.21 1.82413 93.21 2.42102ZM92.0146 1.92361H91.376V2.91843H92.0146C92.4073 2.91843 92.6533 2.75263 92.6533 2.42102C92.6533 2.08942 92.3913 1.92361 92.0146 1.92361Z" fill="white"/>
</g>
<defs>
<clipPath id="clip0_149_4090">
<rect width="94.6667" height="16" fill="white"/>
</clipPath>
</defs>
</svg>
