<svg width="166" height="28" viewBox="0 0 166 28" fill="none" xmlns="http://www.w3.org/2000/svg">
<g clip-path="url(#clip0_137_4556)">
<path d="M4.75546 27.5648H0L11.8314 0.40625H16.5582L4.75546 27.5648ZM16.7014 27.5648H11.946L23.7774 0.40625H28.5041L16.7014 27.5648Z" fill="#FF4700"/>
<path d="M44.8614 12.0125L41.3091 11.229C37.4132 10.3295 35.8089 9.57512 35.8089 7.34093C35.8089 5.13575 38.2438 3.74301 41.2805 3.74301C44.2312 3.74301 46.437 4.87461 47.2105 7.57305H51.9373C51.1638 3.10466 47.3824 0 41.3091 0C35.6943 0 31.3113 3.27875 31.3113 7.77617C31.3113 11.9544 34.3192 14.1596 38.6449 15.1461L42.2259 15.9295C46.1791 16.8291 48.0985 17.4964 48.0985 20.0788C48.0985 22.5451 45.7495 24.257 41.481 24.257C38.2152 24.257 35.6656 22.6031 35.2072 19.2954H30.4805C31.254 24.7212 35.4938 28 41.3664 28C48.1272 28 52.5962 24.6923 52.5962 19.5855C52.5962 15.3202 50.0752 13.2021 44.8614 12.0125Z" fill="#1D1D1D"/>
<path d="M139.398 23.5897V15.5814H152.548V11.6353H139.398V4.38138H152.776V0.40625H134.843V27.5648H153.091V23.5897H139.398Z" fill="#1D1D1D"/>
<path d="M67.3218 0.40625H57.0947V27.5358H61.6496V17.7575H67.3218C73.968 17.7575 77.8641 14.5659 77.8641 9.0819C77.8641 3.59796 73.968 0.40625 67.3218 0.40625ZM67.4364 13.8405H61.6496V4.38138H67.4364C71.1319 4.38138 73.1372 5.94822 73.1372 9.0819C73.1372 12.2446 71.1319 13.8405 67.4364 13.8405Z" fill="#1D1D1D"/>
<path d="M86.4583 0.40625L77.1765 27.5648H81.9892L84.5389 19.7597L85.8566 15.8426L90.8126 0.986562L95.7686 15.8426L97.0578 19.7597L99.636 27.5648H104.42L95.167 0.40625H86.4583Z" fill="#1D1D1D"/>
<path d="M118.314 24.2279C113.616 24.2279 110.235 20.1077 110.235 13.9855C110.235 7.89223 113.444 3.74301 118.343 3.74301C122.382 3.74301 124.731 6.20933 125.848 9.45906H130.633C129.228 3.71399 124.616 0 118.371 0C111.037 0 105.594 5.51296 105.594 13.9855C105.594 22.458 111.123 27.9709 118.343 27.9709C124.473 27.9709 129.057 24.8663 130.804 18.4829H126.077C124.845 22.1389 122.268 24.2279 118.314 24.2279Z" fill="#1D1D1D"/>
<path d="M160.854 0.40625C163.518 0.40625 165.667 2.61143 165.667 5.30988C165.667 8.00832 163.518 10.2135 160.854 10.2135C158.19 10.2135 156.042 8.00832 156.042 5.30988C156.042 2.61143 158.19 0.40625 160.854 0.40625ZM160.854 9.28501C163.031 9.28501 164.75 7.51506 164.75 5.30988C164.75 3.1047 163.002 1.33475 160.854 1.33475C158.677 1.33475 156.93 3.1047 156.93 5.30988C156.958 7.51506 158.677 9.28501 160.854 9.28501ZM163.118 4.2363C163.118 5.01972 162.687 5.57102 161.914 5.80314L163.232 8.09537H162.143L160.969 5.91921H159.908V8.09537H158.935V2.5534H161.055C162.344 2.5534 163.118 3.19174 163.118 4.2363ZM161.026 3.36583H159.908V5.10677H161.026C161.713 5.10677 162.143 4.81662 162.143 4.2363C162.143 3.65599 161.685 3.36583 161.026 3.36583Z" fill="#1D1D1D"/>
</g>
<defs>
<clipPath id="clip0_137_4556">
<rect width="165.667" height="28" fill="white"/>
</clipPath>
</defs>
</svg>
