<svg width="25" height="25" viewBox="0 0 25 25" fill="none" xmlns="http://www.w3.org/2000/svg">
<g clip-path="url(#clip0_25_16719)">
<path d="M23.5 3.49788C22.5424 4.17336 21.4821 4.68999 20.36 5.02788C19.7577 4.33539 18.9573 3.84457 18.067 3.62181C17.1767 3.39904 16.2395 3.45507 15.3821 3.78233C14.5247 4.10959 13.7884 4.69228 13.273 5.4516C12.7575 6.21091 12.4877 7.11022 12.5 8.02788V9.02788C10.7426 9.07345 9.00127 8.68369 7.43101 7.89333C5.86074 7.10296 4.51032 5.93651 3.5 4.49788C3.5 4.49788 -0.5 13.4979 8.5 17.4979C6.44053 18.8958 3.98716 19.5968 1.5 19.4979C10.5 24.4979 21.5 19.4979 21.5 7.99788C21.4991 7.71933 21.4723 7.44147 21.42 7.16788C22.4406 6.16137 23.1608 4.89059 23.5 3.49788Z" stroke="#373334" stroke-width="2" stroke-linecap="round" stroke-linejoin="round"/>
</g>
<defs>
<clipPath id="clip0_25_16719">
<rect width="24" height="24" fill="white" transform="translate(0.5 0.497894)"/>
</clipPath>
</defs>
</svg>
